<svg xmlns="http://www.w3.org/2000/svg" width="445" height="445" viewBox="0 0 445 445">
  <g id="Group_4" data-name="Group 4" transform="translate(-1276 -1762)" opacity="0.1">
    <g id="Group_3" data-name="Group 3" transform="translate(1276 1762)">
      <path id="Path_1" data-name="Path 1" d="M471.219,458.576c0,122.879-99.621,222.5-222.5,222.5a226.079,226.079,0,0,1-30.872-2.121q-6.753-.939-13.367-2.277l17.279-75.459c4.415.834,8.917,1.46,13.472,1.877,4.45.417,8.935.626,13.489.626a145.159,145.159,0,0,0,50.758-281.15,130.328,130.328,0,0,0-12.933-4.155l17.279-75.459q6.6,1.669,13.037,3.755C406.416,275.483,471.219,359.46,471.219,458.576Z" transform="translate(-26.219 -236.076)" fill="#fff"/>
      <path id="Path_2" data-name="Path 2" d="M368.374,243.346l-17.3,75.459A145.165,145.165,0,0,0,286.31,601.571l-17.279,75.476c-96.075-24.614-167.1-111.789-167.1-215.547,0-122.879,99.621-222.5,222.5-222.5A223.2,223.2,0,0,1,368.374,243.346Z" transform="translate(-101.93 -239)" fill="#fff"/>
      <path id="Path_3" data-name="Path 3" d="M284.5,353.207c-2.625,11.525-15.019,19.086-30.455,20.06a56.9,56.9,0,0,1-13.7-.834l12.776-55.764,6.936-30.3a130.334,130.334,0,0,1,12.933,4.155l-7.179,31.359v.017C279.287,329.479,287.144,341.682,284.5,353.207Z" transform="translate(0.263 -204.028)" fill="#fff"/>
      <path id="Path_4" data-name="Path 4" d="M257.821,302.717l-12.55,54.721c-17.835-6.866-29.134-21.294-26.057-34.766C222.308,309.183,238.752,301.1,257.821,302.717Z" transform="translate(-15.713 -192.11)" fill="#fff"/>
    </g>
  </g>
</svg>
