<svg id="Group_20" data-name="Group 20" xmlns="http://www.w3.org/2000/svg" width="259.769" height="259.769" viewBox="0 0 259.769 259.769">
  <path id="Path_5" data-name="Path 5" d="M360.189,368.826A129.888,129.888,0,0,1,230.3,498.711a131.963,131.963,0,0,1-18.021-1.238q-3.942-.548-7.8-1.329l10.086-44.049c2.577.487,5.206.852,7.864,1.1,2.6.244,5.216.365,7.874.365a84.737,84.737,0,0,0,29.63-164.121,76.065,76.065,0,0,0-7.55-2.425l10.086-44.049q3.851.974,7.61,2.192A129.924,129.924,0,0,1,360.189,368.826Z" transform="translate(-100.42 -238.942)" fill="#ec6025"/>
  <path id="Path_6" data-name="Path 6" d="M257.467,241.537l-10.1,44.049a84.74,84.74,0,0,0-37.809,165.065L199.475,494.71a129.913,129.913,0,0,1,57.991-253.173Z" transform="translate(-101.93 -239)" fill="#faa622"/>
  <path id="Path_7" data-name="Path 7" d="M266.124,325.386c-1.532,6.728-8.767,11.142-17.778,11.71a33.221,33.221,0,0,1-8-.487l7.458-32.552,4.049-17.687a76.1,76.1,0,0,1,7.55,2.425L255.216,307.1v.01C263.08,311.535,267.666,318.659,266.124,325.386Z" transform="translate(-99.892 -238.303)" fill="#faa622"/>
  <path id="Path_8" data-name="Path 8" d="M241.541,302.632l-7.326,31.943c-10.411-4.008-17.007-12.43-15.211-20.294S230.41,301.688,241.541,302.632Z" transform="translate(-100.211 -238.065)" fill="#ec6025"/>
</svg>
